<svg width="21" height="21" viewBox="0 0 21 21" fill="none" xmlns="http://www.w3.org/2000/svg">
<path d="M11.3966 0C12.535 0.00303557 13.1128 0.00910672 13.6116 0.0232727L13.8079 0.0303557C14.0346 0.0384505 14.2582 0.0485691 14.5283 0.0607114C15.605 0.111304 16.3396 0.281296 16.9841 0.531225C17.6519 0.788237 18.2145 1.13632 18.7771 1.6979C19.2919 2.20355 19.69 2.81546 19.9438 3.49091C20.1937 4.13546 20.3637 4.87007 20.4143 5.9477C20.4265 6.21685 20.4366 6.44047 20.4447 6.66814L20.4507 6.86444C20.4659 7.36227 20.472 7.94004 20.474 9.07838L20.475 9.83323V11.1588C20.4775 11.8968 20.4697 12.6349 20.4518 13.3727L20.4457 13.569C20.4376 13.7967 20.4275 14.0203 20.4153 14.2894C20.3647 15.3671 20.1927 16.1007 19.9438 16.7462C19.69 17.4217 19.2919 18.0336 18.7771 18.5392C18.2715 19.054 17.6596 19.4521 16.9841 19.7059C16.3396 19.9558 15.605 20.1258 14.5283 20.1764L13.8079 20.2068L13.6116 20.2129C13.1128 20.227 12.535 20.2341 11.3966 20.2361L10.6418 20.2371H9.31728C8.57888 20.2397 7.84049 20.232 7.10232 20.2139L6.90602 20.2078C6.66582 20.1987 6.42566 20.1882 6.18558 20.1764C5.10896 20.1258 4.37435 19.9558 3.72879 19.7059C3.05371 19.452 2.44215 19.0539 1.93679 18.5392C1.4217 18.0337 1.02319 17.4218 0.769105 16.7462C0.519177 16.1017 0.349184 15.3671 0.298592 14.2894L0.268236 13.569L0.263177 13.3727C0.244524 12.6349 0.236091 11.8968 0.23788 11.1588V9.07838C0.23508 8.34033 0.242501 7.60228 0.260141 6.86444L0.267224 6.66814C0.275319 6.44047 0.285438 6.21685 0.29758 5.9477C0.348173 4.87007 0.518165 4.13647 0.768093 3.49091C1.02277 2.81519 1.42198 2.20325 1.9378 1.6979C2.44287 1.18342 3.05407 0.785276 3.72879 0.531225C4.37435 0.281296 5.10795 0.111304 6.18558 0.0607114C6.45473 0.0485691 6.67936 0.0384505 6.90602 0.0303557L7.10232 0.0242845C7.84016 0.00630661 8.57821 -0.00145171 9.31626 0.00101178L11.3966 0ZM10.3565 5.05929C9.01465 5.05929 7.7278 5.59232 6.779 6.54112C5.8302 7.48992 5.29717 8.77677 5.29717 10.1186C5.29717 11.4604 5.8302 12.7472 6.779 13.696C7.7278 14.6448 9.01465 15.1779 10.3565 15.1779C11.6983 15.1779 12.9851 14.6448 13.9339 13.696C14.8827 12.7472 15.4157 11.4604 15.4157 10.1186C15.4157 8.77677 14.8827 7.48992 13.9339 6.54112C12.9851 5.59232 11.6983 5.05929 10.3565 5.05929ZM10.3565 7.083C10.7551 7.08293 11.1498 7.16139 11.5182 7.31388C11.8865 7.46637 12.2211 7.68991 12.5031 7.97174C12.785 8.25357 13.0087 8.58818 13.1613 8.95644C13.3139 9.32471 13.3925 9.71943 13.3925 10.1181C13.3926 10.5167 13.3141 10.9115 13.1617 11.2798C13.0092 11.6481 12.7856 11.9828 12.5038 12.2647C12.222 12.5466 11.8874 12.7703 11.5191 12.9229C11.1508 13.0755 10.7561 13.1541 10.3575 13.1541C9.55238 13.1541 8.78027 12.8343 8.21099 12.265C7.64171 11.6958 7.32189 10.9237 7.32189 10.1186C7.32189 9.31349 7.64171 8.54138 8.21099 7.9721C8.78027 7.40282 9.55238 7.083 10.3575 7.083M15.6697 3.5415C15.3343 3.5415 15.0126 3.67476 14.7754 3.91196C14.5382 4.14916 14.4049 4.47087 14.4049 4.80632C14.4049 5.14177 14.5382 5.46349 14.7754 5.70069C15.0126 5.93789 15.3343 6.07114 15.6697 6.07114C16.0052 6.07114 16.3269 5.93789 16.5641 5.70069C16.8013 5.46349 16.9345 5.14177 16.9345 4.80632C16.9345 4.47087 16.8013 4.14916 16.5641 3.91196C16.3269 3.67476 16.0052 3.5415 15.6697 3.5415Z" fill="white"/>
</svg>
