<svg width="54" height="42" viewBox="0 0 54 42" fill="none" xmlns="http://www.w3.org/2000/svg">
<path d="M8.46932 17.0659C12.4094 17.0659 13.042 15.443 14.7902 15.443C15.1904 15.443 15.4855 15.5269 16.0129 15.7805L19.5943 17.6763C20.0154 17.9078 20.3734 18.1186 20.6685 18.3089H20.7948C21.2799 16.5385 22.059 15.4006 23.408 14.5578V14.4325L18.604 11.8829C17.1084 11.0825 16.9811 10.4288 16.9811 8.55322C16.9811 3.79157 13.1895 0 8.46932 0C3.77132 0 0 3.81279 0 8.55225C0 13.2724 3.77132 17.0659 8.46932 17.0659ZM8.46932 13.6302C5.70954 13.6302 3.45504 11.3333 3.45504 8.55225C3.45504 5.70761 5.70954 3.45407 8.46932 3.45407C11.314 3.45407 13.5472 5.70857 13.5472 8.55225C13.5488 9.21952 13.4185 9.88052 13.1638 10.4973C12.9092 11.1141 12.5352 11.6745 12.0634 12.1463C11.5915 12.6181 11.0311 12.9921 10.4144 13.2468C9.79759 13.5014 9.13659 13.6317 8.46932 13.6302ZM8.46932 41.041C13.1895 41.041 16.9811 37.2484 16.9811 32.4877C16.9811 30.7385 17.0659 30.0433 18.3504 29.348L54 10.4075C53.136 7.24757 49.7022 6.69986 44.4555 8.57539L26.4619 15.0429C23.9345 15.9493 22.8594 17.1922 22.1641 19.5306L21.7437 21.0687C21.4274 22.1641 20.9433 22.7118 19.2992 23.5546L16.0129 25.2826C15.4855 25.5565 15.1904 25.6404 14.7902 25.6404C13.042 25.6404 12.4094 23.9972 8.46932 23.9972C3.77132 23.9972 0 27.7897 0 32.4877C0 37.2282 3.77132 41.0419 8.46932 41.0419M26.947 21.1526C25.9991 21.1526 25.1775 20.3734 25.1775 19.4043C25.1775 18.3928 25.9991 17.6339 26.947 17.6339C27.9161 17.6339 28.7376 18.3928 28.7376 19.4043C28.7376 20.3734 27.9161 21.1526 26.947 21.1526ZM44.4555 32.5302C49.7436 34.4896 53.136 33.857 54 30.6132L36.8502 21.5527L28.1475 26.1264V26.379L44.4555 32.5302ZM8.46932 37.5869C5.70954 37.5869 3.45504 35.3324 3.45504 32.4877C3.45504 29.7067 5.70954 27.431 8.46932 27.431C11.314 27.431 13.5472 29.7067 13.5472 32.4877C13.5472 35.3324 11.314 37.5869 8.46932 37.5869Z" fill="#B19D60"/>
</svg>
