<svg width="54" height="42" viewBox="0 0 54 42" fill="none" xmlns="http://www.w3.org/2000/svg">
<path d="M45.5307 17.0659C41.5906 17.0659 40.958 15.443 39.2098 15.443C38.8096 15.443 38.5145 15.5269 37.9871 15.7805L34.4057 17.6763C33.9846 17.9078 33.6266 18.1186 33.3315 18.3089H33.2052C32.7201 16.5385 31.941 15.4006 30.592 14.5578V14.4325L35.396 11.8829C36.8916 11.0825 37.0189 10.4288 37.0189 8.55322C37.0189 3.79157 40.8105 0 45.5307 0C50.2287 0 54 3.81279 54 8.55225C54 13.2724 50.2287 17.0659 45.5307 17.0659ZM45.5307 13.6302C48.2905 13.6302 50.545 11.3333 50.545 8.55225C50.545 5.70761 48.2905 3.45407 45.5307 3.45407C42.686 3.45407 40.4528 5.70857 40.4528 8.55225C40.4512 9.21952 40.5815 9.88052 40.8362 10.4973C41.0908 11.1141 41.4648 11.6745 41.9366 12.1463C42.4085 12.6181 42.9689 12.9921 43.5856 13.2468C44.2024 13.5014 44.8634 13.6317 45.5307 13.6302ZM45.5307 41.041C40.8105 41.041 37.0189 37.2484 37.0189 32.4877C37.0189 30.7385 36.9341 30.0433 35.6496 29.348L0 10.4075C0.863998 7.24757 4.29782 6.69986 9.5445 8.57539L27.5381 15.0429C30.0655 15.9493 31.1406 17.1922 31.8359 19.5306L32.2563 21.0687C32.5726 22.1641 33.0567 22.7118 34.7008 23.5546L37.9871 25.2826C38.5145 25.5565 38.8096 25.6404 39.2098 25.6404C40.958 25.6404 41.5906 23.9972 45.5307 23.9972C50.2287 23.9972 54 27.7897 54 32.4877C54 37.2282 50.2287 41.0419 45.5307 41.0419M27.053 21.1526C28.0009 21.1526 28.8225 20.3734 28.8225 19.4043C28.8225 18.3928 28.0009 17.6339 27.053 17.6339C26.0839 17.6339 25.2624 18.3928 25.2624 19.4043C25.2624 20.3734 26.0839 21.1526 27.053 21.1526ZM9.5445 32.5302C4.25636 34.4896 0.863998 33.857 0 30.6132L17.1498 21.5527L25.8525 26.1264V26.379L9.5445 32.5302ZM45.5307 37.5869C48.2905 37.5869 50.545 35.3324 50.545 32.4877C50.545 29.7067 48.2905 27.431 45.5307 27.431C42.686 27.431 40.4528 29.7067 40.4528 32.4877C40.4528 35.3324 42.686 37.5869 45.5307 37.5869Z" fill="#B19D60"/>
</svg>
