<svg width="21" height="21" viewBox="0 0 21 21" fill="none" xmlns="http://www.w3.org/2000/svg">
<path d="M10.5932 0C16.1817 0 20.7118 4.53009 20.7118 10.1186C20.7118 15.7071 16.1817 20.2371 10.5932 20.2371C8.805 20.2402 7.04824 19.767 5.50356 18.8661L0.478672 20.2371L1.8467 15.2102C0.945097 13.6651 0.471491 11.9076 0.474625 10.1186C0.474625 4.53009 5.00471 0 10.5932 0ZM7.14479 5.36284L6.94242 5.37094C6.81157 5.37995 6.68373 5.41432 6.56601 5.47212C6.4563 5.53437 6.35611 5.61206 6.26852 5.70283C6.1471 5.81717 6.07829 5.91633 6.00443 6.01246C5.63016 6.49906 5.42865 7.09647 5.43171 7.71035C5.43374 8.20616 5.56326 8.68882 5.76563 9.14011C6.17948 10.0528 6.86046 11.0191 7.75899 11.9146C7.97552 12.1301 8.18801 12.3467 8.41669 12.548C9.53321 13.531 10.8636 14.2398 12.3022 14.6183L12.877 14.7063C13.0642 14.7165 13.2513 14.7023 13.4396 14.6932C13.7342 14.6776 14.0219 14.5979 14.2824 14.4594C14.4148 14.391 14.5441 14.3167 14.67 14.2368C14.67 14.2368 14.7128 14.2078 14.7965 14.1458C14.9331 14.0446 15.017 13.9727 15.1304 13.8544C15.2154 13.7667 15.2862 13.6648 15.3429 13.5488C15.4218 13.3838 15.5007 13.0691 15.5331 12.8071C15.5574 12.6067 15.5503 12.4975 15.5473 12.4297C15.5432 12.3214 15.4532 12.2091 15.355 12.1615L14.7661 11.8974C14.7661 11.8974 13.8858 11.5139 13.3475 11.2691C13.2911 11.2445 13.2308 11.2305 13.1694 11.2276C13.1001 11.2203 13.0302 11.2281 12.9642 11.2502C12.8982 11.2724 12.8377 11.3085 12.7869 11.3561C12.7818 11.3541 12.7141 11.4117 11.9825 12.2981C11.9405 12.3545 11.8827 12.3972 11.8163 12.4206C11.75 12.444 11.6782 12.4472 11.6101 12.4297C11.5442 12.4121 11.4796 12.3898 11.4169 12.3629C11.2914 12.3103 11.2479 12.29 11.1619 12.2536C10.5809 12.0005 10.0432 11.6581 9.56819 11.2387C9.44069 11.1274 9.32231 11.006 9.20088 10.8886C8.80283 10.5073 8.4559 10.0761 8.16879 9.60556L8.10909 9.50944C8.06686 9.44447 8.03223 9.37487 8.00588 9.302C7.96743 9.15326 8.0676 9.03386 8.0676 9.03386C8.0676 9.03386 8.31348 8.76471 8.42782 8.619C8.53913 8.47734 8.63323 8.33973 8.69394 8.24158C8.81334 8.04933 8.85078 7.85201 8.78805 7.69922C8.50473 7.00711 8.21196 6.31871 7.90975 5.63402C7.85005 5.49843 7.67298 5.40129 7.51209 5.38207C7.45745 5.37532 7.40281 5.36993 7.34817 5.36588C7.21231 5.35809 7.07608 5.35944 6.94039 5.36993L7.14479 5.36284Z" fill="white"/>
</svg>
